<?xml version="1.0" encoding="UTF-8"?>
<svg id="Layer_1" xmlns="http://www.w3.org/2000/svg" version="1.1" xmlns:xlink="http://www.w3.org/1999/xlink" viewBox="0 0 60 60">
  <!-- Generator: Adobe Illustrator 29.6.1, SVG Export Plug-In . SVG Version: 2.1.1 Build 9)  -->
  <defs>
    <style>
      .st0 {
        fill: none;
      }

      .st1 {
        fill: #edf2f1;
      }

      .st2 {
        clip-path: url(#clippath);
      }
    </style>
    <clipPath id="clippath">
      <rect class="st0" width="60" height="60"/>
    </clipPath>
  </defs>
  <g class="st2">
    <g>
      <path class="st1" d="M55.5,34.5H4.5c-2.49,0-4.5-2.01-4.5-4.5s2.01-4.5,4.5-4.5h51c2.48,0,4.5,2.02,4.5,4.5s-2.02,4.5-4.5,4.5"/>
      <path class="st1" d="M55.5,9H4.5C2.01,9,0,6.99,0,4.5S2.01,0,4.5,0h51c2.48,0,4.5,2.02,4.5,4.5s-2.02,4.5-4.5,4.5"/>
      <path class="st1" d="M55.5,60H4.5c-2.49,0-4.5-2.02-4.5-4.5s2.01-4.5,4.5-4.5h51c2.48,0,4.5,2.01,4.5,4.5s-2.02,4.5-4.5,4.5"/>
    </g>
  </g>
</svg>